<svg xmlns="http://www.w3.org/2000/svg" xmlns:xlink="http://www.w3.org/1999/xlink" width="442" zoomAndPan="magnify" viewBox="0 0 331.5 352.499998" height="470" preserveAspectRatio="xMidYMid meet" version="1.0"><defs><clipPath id="7919fa96f8"><path d="M 31.980469 130.003906 L 298.921875 130.003906 L 298.921875 351.878906 L 31.980469 351.878906 Z M 31.980469 130.003906 " clip-rule="nonzero"/></clipPath><clipPath id="419e21e1b5"><path d="M 70.171875 130.003906 L 260.144531 130.003906 C 270.273438 130.003906 279.988281 134.027344 287.148438 141.191406 C 294.3125 148.351562 298.335938 158.066406 298.335938 168.195312 L 298.335938 313.683594 C 298.335938 323.8125 294.3125 333.527344 287.148438 340.691406 C 279.988281 347.851562 270.273438 351.878906 260.144531 351.878906 L 70.171875 351.878906 C 60.042969 351.878906 50.328125 347.851562 43.167969 340.691406 C 36.003906 333.527344 31.980469 323.8125 31.980469 313.683594 L 31.980469 168.195312 C 31.980469 158.066406 36.003906 148.351562 43.167969 141.191406 C 50.328125 134.027344 60.042969 130.003906 70.171875 130.003906 Z M 70.171875 130.003906 " clip-rule="nonzero"/></clipPath><clipPath id="7410d60f4f"><path d="M 0 101.402344 L 330.472656 101.402344 L 330.472656 164.023438 L 0 164.023438 Z M 0 101.402344 " clip-rule="nonzero"/></clipPath><clipPath id="a0dadc3b2a"><path d="M 31.308594 101.402344 L 299.007812 101.402344 C 316.296875 101.402344 330.316406 115.421875 330.316406 132.714844 C 330.316406 150.007812 316.296875 164.023438 299.007812 164.023438 L 31.308594 164.023438 C 14.019531 164.023438 0 150.007812 0 132.714844 C 0 115.421875 14.019531 101.402344 31.308594 101.402344 Z M 31.308594 101.402344 " clip-rule="nonzero"/></clipPath><clipPath id="c6c6bc289f"><path d="M 37.542969 117.644531 L 280.175781 117.644531 L 280.175781 182.453125 L 37.542969 182.453125 Z M 37.542969 117.644531 " clip-rule="nonzero"/></clipPath><clipPath id="8666eb1635"><path d="M 149 22 L 270 22 L 270 142 L 149 142 Z M 149 22 " clip-rule="nonzero"/></clipPath><clipPath id="9e6891773e"><path d="M 230.648438 0.015625 L 291.542969 60.910156 L 188.285156 164.171875 L 127.390625 103.273438 Z M 230.648438 0.015625 " clip-rule="nonzero"/></clipPath><clipPath id="306696871c"><path d="M 230.648438 0.015625 L 292.300781 61.667969 L 187.761719 166.210938 L 126.109375 104.558594 Z M 230.648438 0.015625 " clip-rule="nonzero"/></clipPath><clipPath id="20b4088c2c"><path d="M 261.117188 30.484375 C 244.289062 13.65625 207.578125 23.085938 179.121094 51.546875 C 150.660156 80.003906 141.230469 116.71875 158.058594 133.542969 C 174.882812 150.371094 211.597656 140.941406 240.054688 112.480469 C 268.515625 84.023438 277.945312 47.3125 261.117188 30.484375 Z M 261.117188 30.484375 " clip-rule="nonzero"/></clipPath><clipPath id="53b37a0651"><path d="M 59 22 L 180 22 L 180 142 L 59 142 Z M 59 22 " clip-rule="nonzero"/></clipPath><clipPath id="9e5ccfd129"><path d="M 201.214844 103.074219 L 140.320312 163.972656 L 37.0625 60.714844 L 97.957031 -0.183594 Z M 201.214844 103.074219 " clip-rule="nonzero"/></clipPath><clipPath id="fe81aec0cd"><path d="M 201.214844 103.078125 L 139.5625 164.730469 L 35.023438 60.1875 L 96.675781 -1.464844 Z M 201.214844 103.078125 " clip-rule="nonzero"/></clipPath><clipPath id="5303db21eb"><path d="M 170.746094 133.542969 C 187.574219 116.71875 178.144531 80.003906 149.683594 51.546875 C 121.226562 23.085938 84.515625 13.65625 67.6875 30.484375 C 50.859375 47.3125 60.289062 84.023438 88.75 112.480469 C 117.210938 140.941406 153.921875 150.371094 170.746094 133.542969 Z M 170.746094 133.542969 " clip-rule="nonzero"/></clipPath></defs><g clip-path="url(#7919fa96f8)"><g clip-path="url(#419e21e1b5)"><path fill="#000000" d="M 31.980469 130.003906 L 298.054688 130.003906 L 298.054688 351.878906 L 31.980469 351.878906 Z M 31.980469 130.003906 " fill-opacity="1" fill-rule="nonzero"/></g></g><g clip-path="url(#7410d60f4f)"><g clip-path="url(#a0dadc3b2a)"><path fill="#000000" d="M 0 101.402344 L 330.226562 101.402344 L 330.226562 164.023438 L 0 164.023438 Z M 0 101.402344 " fill-opacity="1" fill-rule="nonzero"/></g></g><g clip-path="url(#c6c6bc289f)"><path fill="#000000" d="M 37.542969 117.644531 L 280.066406 117.644531 L 280.066406 182.453125 L 37.542969 182.453125 Z M 37.542969 117.644531 " fill-opacity="1" fill-rule="nonzero"/></g><g clip-path="url(#8666eb1635)"><g clip-path="url(#9e6891773e)"><g clip-path="url(#306696871c)"><g clip-path="url(#20b4088c2c)"><path stroke-linecap="butt" transform="matrix(0.529531, 0.529531, -0.529531, 0.529531, 230.649657, 0.0165172)" fill="none" stroke-linejoin="miter" d="M 57.53709 0.000308986 C 25.757811 0.000308986 -0.00199382 43.567723 0.00169459 97.31144 C -0.00199382 151.055156 25.7615 194.626259 57.53709 194.62257 C 89.31268 194.626259 115.076173 151.055156 115.072485 97.31144 C 115.076173 43.567723 89.316368 0.000308986 57.53709 0.000308986 Z M 57.53709 0.000308986 " stroke="#000000" stroke-width="74" stroke-opacity="1" stroke-miterlimit="4"/></g></g></g></g><g clip-path="url(#53b37a0651)"><g clip-path="url(#9e5ccfd129)"><g clip-path="url(#fe81aec0cd)"><g clip-path="url(#5303db21eb)"><path stroke-linecap="butt" transform="matrix(-0.529531, 0.529531, -0.529531, -0.529531, 201.215509, 103.076557)" fill="none" stroke-linejoin="miter" d="M 57.537503 0.0028362 C 25.761913 -0.000852204 -0.00158041 43.57025 0.002108 97.313967 C -0.00158041 151.057684 25.758225 194.625097 57.537503 194.625097 C 89.316781 194.625097 115.076586 151.057684 115.072898 97.313967 C 115.072898 43.566561 89.313093 -0.000852204 57.537503 0.0028362 Z M 57.537503 0.0028362 " stroke="#000000" stroke-width="74" stroke-opacity="1" stroke-miterlimit="4"/></g></g></g></g></svg>